<?xml version="1.0" encoding="UTF-8"?>
<svg width="100px" height="4px" viewBox="0 0 100 4" version="1.1" xmlns="http://www.w3.org/2000/svg" xmlns:xlink="http://www.w3.org/1999/xlink">
    <!-- Generator: Sketch 53.2 (72643) - https://sketchapp.com -->
    <title>Path</title>
    <desc>Created with Sketch.</desc>
    <g id="Page-1" stroke="none" stroke-width="1" fill="none" fill-rule="evenodd">
        <g id="border" transform="translate(-0.909091, 0.000000)" fill="#0071BC" fill-rule="nonzero">
            <path d="M96.5454545,3.09090909 C93.0909091,2.90909091 89.5454545,2.81818182 86.0909091,2.81818182 C84.8181818,2.81818182 83.5454545,2.72727273 82.2727273,2.90909091 C80.7272727,3.09090909 79.1818182,2.72727273 77.7272727,2.72727273 C71.4545455,2.63636364 65.1818182,2.63636364 59,2.72727273 C55.0909091,2.72727273 51.2727273,2.90909091 47.3636364,2.81818182 C46.3636364,2.81818182 45.5454545,3.09090909 44.5454545,3.18181818 C42.6363636,3.36363636 40.8181818,2.90909091 38.9090909,3 C37.8181818,3 36.8181818,3.36363636 35.8181818,3.27272727 C32,3.09090909 28.2727273,3.27272727 24.5454545,3.36363636 C19.0909091,3.36363636 13.7272727,3.45454545 8.27272727,3.63636364 C7,3.63636364 5.72727273,3.63636364 4.54545455,3.36363636 C3.09090909,3.09090909 1.90909091,2.27272727 1,1.27272727 C0.727272727,0.909090909 1.09090909,0.727272727 1.54545455,0.636363636 C2.27272727,0.454545455 2.90909091,0.727272727 3.54545455,0.727272727 C8.18181818,0.636363636 12.8181818,0.454545455 17.4545455,0.454545455 C22.2727273,0.363636364 27.0909091,0.454545455 31.9090909,0.363636364 C34.6363636,0.363636364 37.3636364,0.272727273 40.0909091,0.272727273 C47.6363636,0.272727273 55.0909091,-0.0909090909 62.6363636,0.0909090909 C66,0.181818182 69.4545455,0.181818182 72.8181818,0.181818182 C75.0909091,0.181818182 77.3636364,2.77555756e-17 79.6363636,0.454545455 C80.1818182,0.545454545 80.9090909,0.0909090909 81.5454545,0.0909090909 C87.2727273,0.0909090909 93.0909091,-0.181818182 98.8181818,0.818181818 C99.0909091,0.909090909 99.5454545,0.909090909 99.9090909,0.909090909 C100.272727,0.909090909 100.454545,1.09090909 100.545455,1.36363636 C100.636364,1.63636364 100.727273,1.81818182 100.363636,2.09090909 C99.4545455,3.09090909 98.0909091,3.18181818 96.5454545,3.09090909 Z" id="Path"></path>
        </g>
    </g>
</svg>