<?xml version="1.0" encoding="UTF-8"?>
<svg width="1518px" height="684px" viewBox="0 0 1518 684" version="1.1" xmlns="http://www.w3.org/2000/svg" xmlns:xlink="http://www.w3.org/1999/xlink">
    <!-- Generator: Sketch 53.2 (72643) - https://sketchapp.com -->
    <title>adkatech_white copy</title>
    <desc>Created with Sketch.</desc>
    <g id="Page-1" stroke="none" stroke-width="1" fill="none" fill-rule="evenodd">
        <g id="adkatech_white-copy" fill-rule="nonzero">
            <rect id="Rectangle" fill="#004972" x="0" y="681.99" width="1517.36" height="1.84"></rect>
            <g id="technology" transform="translate(0.000000, 628.000000)" fill="#004972">
                <path d="M11.92,37.59 C12.4914957,37.5947421 13.0528263,37.4388169 13.54,37.14 C13.7431478,36.928343 13.8514491,36.6431496 13.84,36.35 L13.84,10.35 L2.06,10.35 C1.73828605,10.3356332 1.42934081,10.4770781 1.23,10.73 C0.98327472,11.2146692 0.843458759,11.7466518 0.82,12.29 L0,12.29 L0,-5.68434189e-14 L0.82,5.68434189e-14 C0.840279946,0.543824082 0.980272688,1.07647939 1.23,1.56 C1.42934081,1.81292194 1.73828605,1.95436675 2.06,1.94 L35.91,1.94 C36.2302886,1.96166271 36.5394856,1.81837631 36.73,1.56 C36.9797273,1.07647939 37.1197201,0.543824082 37.14,-5.68434189e-14 L38,-5.68434189e-14 L38,12.34 L37.17,12.34 C37.1465412,11.7966518 37.0067253,11.2646692 36.76,10.78 C36.5694856,10.5216237 36.2602886,10.3783373 35.94,10.4 L24.12,10.4 L24.12,36.4 C24.1123688,36.6943986 24.2241881,36.9793576 24.43,37.19 C24.9131898,37.4895152 25.4715366,37.6455748 26.04,37.64 L26.04,38.48 L11.92,38.48 L11.92,37.59 Z" id="Path"></path>
                <path d="M196.82,32.32 C197.74,32.32 198.33,31.75 198.6,30.59 L199.43,30.59 L199.43,39.67 L198.74,39.67 C198.506667,39.0033333 198.266667,38.6333333 198.02,38.56 C197.629231,38.4543335 197.224332,38.4104695 196.82,38.43 L166.26,38.43 L166.26,37.59 C166.713334,37.5592973 167.16058,37.468503 167.59,37.32 C167.998733,37.1685294 168.245068,36.7510133 168.18,36.32 L168.18,10 C168.249154,9.56820368 168.001395,9.14827288 167.59,9 C167.16108,8.84797634 166.713807,8.75381354 166.26,8.72 L166.26,7.89 L197.37,7.89 C197.664926,7.87936444 197.950162,7.78196669 198.19,7.61 C198.47,7.42 198.6,7.01 198.6,6.36 L199.43,6.36 L199.43,15.65 L198.6,15.65 C198.6,14.96 198.47,14.51 198.19,14.3 C197.959154,14.1076518 197.670359,13.9984731 197.37,13.99 L177.37,13.99 L177.37,19.61 L190.25,19.61 C190.552509,19.5971428 190.843129,19.4885977 191.08,19.3 C191.402014,18.9525486 191.552329,18.4796069 191.49,18.01 L192.31,18.01 L192.31,27.01 L191.49,27.01 C191.553568,26.5433172 191.402887,26.0728963 191.08,25.73 C190.846239,25.5346431 190.554404,25.4221283 190.25,25.41 L177.36,25.41 L177.36,32.28 L196.82,32.32 Z" id="Path"></path>
                <path d="M358.83,19.63 L357.83,19.14 C357.872898,18.9526908 357.929722,18.7688463 358,18.59 C358.07377,18.3881938 358.111018,18.1748645 358.11,17.96 C358.11,17.69 357.82,17.36 357.25,16.96 C356.562935,16.5396883 355.827608,16.2039222 355.06,15.96 C354.076694,15.6342631 353.074935,15.3671275 352.06,15.16 C350.944775,14.928792 349.808939,14.8115229 348.67,14.81 C347.351847,14.8176992 346.03929,14.9821884 344.76,15.3 C343.497062,15.5951315 342.293326,16.1023235 341.2,16.8 C340.158615,17.4631709 339.269174,18.3389811 338.59,19.37 C337.229137,21.706275 337.229137,24.593725 338.59,26.93 C339.25959,27.9796555 340.150345,28.8704097 341.2,29.54 C342.293326,30.2376765 343.497062,30.7448685 344.76,31.04 C346.038371,31.3627193 347.351526,31.5272834 348.67,31.53 C349.978067,31.5400273 351.280975,31.3649595 352.54,31.01 C353.650592,30.6965304 354.728796,30.277973 355.76,29.76 C356.551967,29.3733921 357.288528,28.8823515 357.95,28.3 C358.48,27.82 358.74,27.46 358.74,27.23 L358.74,26.6 C358.749246,26.3909439 358.725625,26.181732 358.67,25.98 L359.43,25.49 L366,35 L365.17,35.48 C364.76,34.98 364.4,34.73 364.08,34.73 C363.561226,34.8604239 363.065482,35.0695135 362.61,35.35 C361.81,35.76 360.74,36.23 359.42,36.75 C357.897186,37.3381976 356.324043,37.7867107 354.72,38.09 C352.74403,38.47872 350.733776,38.6663438 348.72,38.65 C346.243126,38.6525338 343.772861,38.3944463 341.35,37.88 C339.06983,37.4208507 336.895736,36.5390027 334.94,35.28 C333.068812,34.0588057 331.518596,32.4056998 330.42,30.46 C328.139348,25.8957033 328.139348,20.5242967 330.42,15.96 C331.523188,14.0095616 333.072004,12.3476682 334.94,11.11 C336.896491,9.82231333 339.067241,8.89441103 341.35,8.37 C343.763339,7.7880111 346.237481,7.49594823 348.72,7.5 C350.188326,7.49779535 351.653992,7.62495358 353.1,7.88 C354.52,8.14 355.82,8.4 357.01,8.68 C358.2,8.96 359.22,9.22 360.09,9.48 C360.689499,9.67926839 361.310492,9.8068237 361.94,9.86 C362.164374,9.86153987 362.382746,9.78757513 362.56,9.65 C362.718966,9.53365217 362.857516,9.39172308 362.97,9.23 L363.79,9.51 L358.83,19.63 Z" id="Path"></path>
                <path d="M505.35,36.35 C505.279449,36.7705113 505.507085,37.1843949 505.9,37.35 C506.341363,37.5052073 506.802752,37.5961379 507.27,37.62 L507.27,38.46 L494.27,38.46 L494.27,37.62 C494.737248,37.5961379 495.198637,37.5052073 495.64,37.35 C496.032915,37.1843949 496.260551,36.7705113 496.19,36.35 L496.19,10 C496.268469,9.57817929 496.038261,9.15961905 495.64,9 C495.199256,8.84097947 494.737794,8.74666614 494.27,8.72 L494.27,7.89 L507.27,7.89 L507.27,8.72 C506.802206,8.74666614 506.340744,8.84097947 505.9,9 C505.501739,9.15961905 505.271531,9.57817929 505.35,10 L505.35,18.74 L520.5,18.74 L520.5,10 C520.574442,9.57883628 520.345549,9.16266855 519.95,9 C519.509256,8.84097947 519.047794,8.74666614 518.58,8.72 L518.58,7.89 L531.58,7.89 L531.58,8.72 C531.112077,8.74567195 530.650472,8.8400145 530.21,9 C529.811739,9.15961905 529.581531,9.57817929 529.66,10 L529.66,36.36 C529.589449,36.7805113 529.817085,37.1943949 530.21,37.36 C530.651103,37.5161594 531.112631,37.6071176 531.58,37.63 L531.58,38.47 L518.58,38.47 L518.58,37.63 C519.047248,37.6061379 519.508637,37.5152073 519.95,37.36 C520.340354,37.1915647 520.566789,36.779864 520.5,36.36 L520.5,25.8 L505.35,25.8 L505.35,36.35 Z" id="Path"></path>
                <path d="M697.58,36.35 C697.509449,36.7705113 697.737085,37.1843949 698.13,37.35 C698.571103,37.5061594 699.032631,37.5971176 699.5,37.62 L699.5,38.46 L686.82,38.46 L686.82,37.62 C687.246435,37.615892 687.671577,37.5723735 688.09,37.49 C688.57,37.39 688.81,37.14 688.81,36.72 C688.81,36.3 688.31,35.53 687.3,34.4 C686.29,33.27 685.01,31.87 683.43,30.2 L678.12,24.62 C676.12,22.56 674.176667,20.3733333 672.29,18.06 L672.16,18.2 L672.16,36.38 C672.086978,36.789916 672.295313,37.1984155 672.67,37.38 C673.07687,37.5349754 673.505273,37.6260531 673.94,37.65 L673.94,38.49 L662.22,38.49 L662.22,37.65 C662.631169,37.6199585 663.035589,37.5289641 663.42,37.38 C663.794687,37.1984155 664.003022,36.789916 663.93,36.38 L663.93,10 C664.008469,9.57817929 663.778261,9.15961905 663.38,9 C662.962358,8.84473259 662.52453,8.75043101 662.08,8.72 L662.08,7.89 L678.39,7.89 L678.39,8.72 C678.044568,8.76294138 677.707505,8.85731924 677.39,9 C677.07,9.13 676.91,9.46 676.91,10 C677.235138,10.5148779 677.617579,10.9912508 678.05,11.42 C678.8,12.27 679.77,13.35 680.96,14.64 C682.15,15.93 683.47,17.37 684.96,18.94 C686.45,20.51 687.89,22.09 689.35,23.66 L689.35,10 C689.428469,9.57817929 689.198261,9.15961905 688.8,9 C688.359256,8.84097947 687.897794,8.74666614 687.43,8.72 L687.43,7.89 L699.5,7.89 L699.5,8.72 C699.032077,8.74567195 698.570472,8.8400145 698.13,9 C697.731739,9.15961905 697.501531,9.57817929 697.58,10 L697.58,36.35 Z" id="Path"></path>
                <path d="M846.64,7.49 C848.827422,7.49633247 851.003895,7.79908767 853.11,8.39 C855.228805,8.96651347 857.227085,9.91823649 859.01,11.2 C860.781551,12.4925389 862.243503,14.1628536 863.29,16.09 C865.47601,20.5639178 865.47601,25.7960822 863.29,30.27 C862.239157,32.180533 860.773176,33.8310428 859,35.1 C857.218362,36.3590912 855.217466,37.2747552 853.1,37.8 C848.840154,38.9286184 844.359846,38.9286184 840.1,37.8 C837.984936,37.2767123 835.986969,36.3608362 834.21,35.1 C828.423162,30.6057123 826.625655,22.6447233 829.92,16.1 C830.967154,14.1702741 832.432992,12.4994238 834.21,11.21 C835.988221,9.9264919 837.983554,8.9745588 840.1,8.4 C842.228262,7.79965622 844.428689,7.49348061 846.64,7.49 L846.64,7.49 Z M846.64,14.84 C845.402403,14.8342041 844.172402,15.0335723 843,15.43 C841.908023,15.8070783 840.892099,16.375996 840,17.11 C839.147752,17.8206517 838.464535,18.7122497 838,19.72 C837.028433,21.9521966 837.028433,24.4878034 838,26.72 C838.464425,27.730662 839.147542,28.6255464 840,29.34 C840.892618,30.0708081 841.908563,30.636351 843,31.01 C844.172402,31.4064277 845.402403,31.6057959 846.64,31.6 C847.884506,31.610659 849.121885,31.4111908 850.3,31.01 C851.390828,30.6349854 852.406542,30.0695713 853.3,29.34 C854.151974,28.6250846 854.835003,27.7303175 855.3,26.72 C856.271567,24.4878034 856.271567,21.9521966 855.3,19.72 C854.834603,18.7127703 854.151521,17.8213491 853.3,17.11 C852.40694,16.3774037 851.391279,15.8086334 850.3,15.43 C849.121885,15.0288092 847.884506,14.829341 846.64,14.84 L846.64,14.84 Z" id="Shape"></path>
                <path d="M995.63,10 C995.704442,9.57883628 995.475549,9.16266855 995.08,9 C994.662052,8.84578484 994.224376,8.75151613 993.78,8.72 L993.78,7.89 L1006.59,7.89 L1006.59,8.72 C1006.15501,8.74901673 1005.72687,8.84340958 1005.32,9 C1004.98,9.13 1004.81,9.46 1004.81,10 L1004.81,31.36 L1023.59,31.36 C1023.89006,31.3500079 1024.17838,31.2410095 1024.41,31.05 C1024.68,30.84 1024.82,30.37 1024.82,29.63 L1025.64,29.63 L1025.64,40 L1024.82,40 C1024.82,39.26 1024.68,38.82 1024.41,38.69 C1024.15697,38.5565272 1023.87604,38.4845815 1023.59,38.48 L993.78,38.48 L993.78,37.64 C994.223873,37.6115699 994.661517,37.5206746 995.08,37.37 C995.470354,37.2015647 995.696789,36.789864 995.63,36.37 L995.63,10 Z" id="Path"></path>
                <path d="M1170.86,7.49 C1173.04752,7.49497325 1175.22417,7.79775389 1177.33,8.39 C1179.44881,8.96651347 1181.44708,9.91823649 1183.23,11.2 C1185.00406,12.4897901 1186.46656,14.1607267 1187.51,16.09 C1191.09006,22.5948599 1189.25336,30.7484369 1183.23,35.09 C1181.44836,36.3490912 1179.44747,37.2647552 1177.33,37.79 C1173.08596,38.9098051 1168.62404,38.9098051 1164.38,37.79 C1162.26564,37.2646983 1160.26804,36.348988 1158.49,35.09 C1152.69607,30.599674 1150.901,22.6308805 1154.21,16.09 C1155.25033,14.1585688 1156.71339,12.4869958 1158.49,11.2 C1160.26934,9.91837388 1162.26431,8.96660969 1164.38,8.39 C1166.48938,7.79843408 1168.66925,7.49567505 1170.86,7.49 Z M1170.86,14.84 C1169.62567,14.8342012 1168.39896,15.0335843 1167.23,15.43 C1166.13749,15.8058942 1165.12137,16.3749249 1164.23,17.11 C1163.37775,17.8206517 1162.69453,18.7122497 1162.23,19.72 C1161.25843,21.9521966 1161.25843,24.4878034 1162.23,26.72 C1162.69442,27.730662 1163.37754,28.6255464 1164.23,29.34 C1165.12189,30.0718824 1166.13804,30.637538 1167.23,31.01 C1168.39896,31.4064157 1169.62567,31.6057988 1170.86,31.6 C1172.10459,31.611814 1173.34217,31.4123147 1174.52,31.01 C1175.61135,30.6361546 1176.62726,30.0706303 1177.52,29.34 C1178.37246,28.6255464 1179.05558,27.730662 1179.52,26.72 C1180.49157,24.4878034 1180.49157,21.9521966 1179.52,19.72 C1179.05547,18.7122497 1178.37225,17.8206517 1177.52,17.11 C1176.62778,16.3761732 1175.61189,15.8072741 1174.52,15.43 C1173.34217,15.0276853 1172.10459,14.828186 1170.86,14.84 Z" id="Shape"></path>
                <path d="M1351.37,31.28 C1351.36123,31.7206361 1351.47925,32.1545143 1351.71,32.53 C1351.90862,32.8927297 1352.29694,33.1101878 1352.71,33.09 L1353.33,33.09 L1353.33,33.92 C1352.23,34.47 1350.98,35.04 1349.56,35.62 C1348.06094,36.2269293 1346.52844,36.7477768 1344.97,37.18 C1343.30466,37.6448971 1341.61117,38.0023001 1339.9,38.25 C1338.17538,38.5087348 1336.43392,38.6390929 1334.69,38.64 C1332.2182,38.6609466 1329.75316,38.3788433 1327.35,37.8 C1325.26537,37.3174625 1323.31251,36.3819987 1321.63,35.06 C1320.03247,33.7567555 1318.76482,32.0951094 1317.93,30.21 C1316.99717,27.9968143 1316.54388,25.6110867 1316.6,23.21 C1316.53905,20.7897446 1317.05673,18.3899041 1318.11,16.21 C1319.05084,14.3032954 1320.41983,12.6399698 1322.11,11.35 C1323.84837,10.0544053 1325.81139,9.09154086 1327.9,8.51 C1330.09406,7.87824281 1332.36681,7.56174039 1334.65,7.57 C1336.24205,7.55903374 1337.83282,7.66263456 1339.41,7.88 C1340.69169,8.05773533 1341.96338,8.30139167 1343.22,8.61 C1344.31,8.89 1345.22,9.13 1345.92,9.34 C1346.37669,9.49659844 1346.84974,9.60060376 1347.33,9.65 C1347.58874,9.68292282 1347.84953,9.60685964 1348.05,9.44 C1348.18742,9.27176072 1348.33432,9.1115002 1348.49,8.96 L1349.31,9.1 L1345.75,18.25 L1344.93,17.83 L1344.93,17.35 C1344.93,16.93 1344.62,16.54 1344,16.17 C1343.27411,15.7567569 1342.5065,15.4215541 1341.71,15.17 C1340.75858,14.8676966 1339.78586,14.6370519 1338.8,14.48 C1337.88078,14.3294429 1336.95142,14.2492102 1336.02,14.24 C1334.67215,14.2374077 1333.32897,14.3985887 1332.02,14.72 C1330.81402,15.0164079 1329.68322,15.5613711 1328.7,16.32 C1327.75491,17.0746353 1326.99545,18.0359356 1326.48,19.13 C1325.89378,20.4259316 1325.60996,21.8382098 1325.65,23.26 C1325.61147,24.7236391 1325.89481,26.1778851 1326.48,27.52 C1326.9921,28.658192 1327.76658,29.6588561 1328.74,30.44 C1329.71835,31.1612821 1330.82454,31.6906213 1332,32 C1333.36001,32.3825849 1334.76725,32.5711144 1336.18,32.56 C1337.30435,32.5618419 1338.42733,32.4816289 1339.54,32.32 C1340.65783,32.1494261 1341.75866,31.8817465 1342.83,31.52 L1342.83,27.01 L1337.08,27.01 C1336.63982,26.9579689 1336.22311,27.2204977 1336.08,27.64 C1335.95928,27.9606337 1335.88845,28.2978893 1335.87,28.64 L1335.05,28.64 L1335.05,20.04 L1335.87,20.04 C1335.88998,20.3819092 1335.96075,20.7189382 1336.08,21.04 C1336.24362,21.4416497 1336.64749,21.6920481 1337.08,21.66 L1351.33,21.66 L1351.37,31.28 Z" id="Path"></path>
                <path d="M1503.79,36.35 C1503.79,36.85 1503.94,37.18 1504.27,37.35 C1504.58759,37.4905447 1504.92483,37.5816012 1505.27,37.62 L1505.27,38.46 L1493.21,38.46 L1493.21,37.62 C1493.55499,37.5806869 1493.8921,37.4896673 1494.21,37.35 C1494.55715,37.1440841 1494.74648,36.7496574 1494.69,36.35 L1494.69,27.35 L1481.6,9.35 C1481.38156,9.04845359 1481.04903,8.84965956 1480.68,8.8 C1480.33285,8.71472908 1479.97739,8.66778186 1479.62,8.66 L1479.62,7.83 L1494.35,7.83 L1494.35,8.66 C1494.01437,8.66377322 1493.67973,8.69723705 1493.35,8.76 C1493.18366,8.76769877 1493.02741,8.84198419 1492.91643,8.96612894 C1492.80545,9.09027369 1492.74908,9.25384123 1492.76,9.42 C1492.87353,9.89164858 1493.09616,10.3300701 1493.41,10.7 C1493.85,11.33 1494.41,12.08 1495.03,12.96 C1495.65,13.84 1496.37,14.77 1497.15,15.77 C1497.93,16.77 1498.66,17.72 1499.34,18.65 C1499.71207,17.9586195 1500.12618,17.2906999 1500.58,16.65 L1502.58,13.74 C1503.29,12.74 1503.92,11.8 1504.46,10.97 C1504.83613,10.4959367 1505.11481,9.95217391 1505.28,9.37 C1505.30921,9.0398255 1505.06942,8.74674711 1504.74,8.71 C1504.44692,8.65011081 1504.14906,8.61664325 1503.85,8.61 L1503.85,7.78 L1517.42,7.78 L1517.42,8.61 C1517.08226,8.6164751 1516.74653,8.66347816 1516.42,8.75 C1516.06106,8.80516043 1515.73988,9.00364193 1515.53,9.3 L1503.81,26.99 L1503.79,36.35 Z" id="Path"></path>
            </g>
            <g id="A" transform="translate(1159.590000, 9.260000)" fill="#0071BC">
                <polygon id="Path" points="191.71 322.43 53.86 322.43 41.31 399.11 213.39 399.11"></polygon>
                <path d="M51,77.67 C51,77.67 120.83,76.89 120.93,76.44 L124.27,76.44 C139.13,136.81 156.57,198.76 173.02,256.33 L191.71,322.43 L251.19,322.43 L251.19,399.11 L213.41,399.11 L255.1,546.54 L358.41,546.54 L181.58,0.74 L111.41,0" id="Path"></path>
                <polygon id="Path" points="251.19 322.43 191.71 322.43 213.39 399.11 251.19 399.11"></polygon>
                <polygon id="Path" points="-1.13686838e-13 321.67 40.8 398.56 41.31 399.11 63.28 322.43"></polygon>
            </g>
            <path d="M831.09,10 L929.31,10 L929.31,257.48 L932.13,257.48 L1126.45,10 L1235.39,10 L929.31,394.5 L929.31,555.8 L831.09,555.8 L831.09,10 Z M997.39,277.21 L1055,201.3 L1253,555.8 L1144.57,555.8 L997.39,277.21 Z" id="Shape" fill="#0071BC"></path>
            <g id="D" transform="translate(321.570000, -0.000058)" fill="#004972">
                <path d="M312.49,5.8174833e-05 C305.976181,0.0114553669 300.04159,3.74387859 297.21,9.61005817 L2.84217094e-14,9.61005817 L2.84217094e-14,24.3600582 L297.21,24.3600582 C300.854607,31.948383 309.503999,35.7265602 317.547764,33.2438819 C325.591528,30.7612037 330.606935,22.7654364 329.340751,14.4430201 C328.074566,6.12060383 320.908156,-0.02180407 312.49,5.8174833e-05 Z" id="Path"></path>
                <path d="M426.78,132.720058 C420.26257,132.727625 414.323163,136.460634 411.49,142.330058 L329.49,142.330058 C333.023333,147.116725 336.32,152.033392 339.38,157.080058 L411.49,157.080058 C415.13405,164.667253 423.781528,168.445615 431.824577,165.964892 C439.867626,163.484168 444.884495,155.491302 443.621763,147.169635 C442.359032,138.847968 435.196908,132.703145 426.78,132.720058 L426.78,132.720058 Z" id="Path"></path>
                <path d="M445.21,199.080058 C438.696181,199.091455 432.76159,202.823879 429.93,208.690058 L361.63,208.690058 C362.963333,213.523392 364.15,218.440058 365.19,223.440058 L429.93,223.440058 C433.574607,231.028383 442.223999,234.80656 450.267764,232.323882 C458.311528,229.841204 463.326935,221.845436 462.060751,213.52302 C460.794566,205.200604 453.628156,199.058196 445.21,199.080058 L445.21,199.080058 Z" id="Path"></path>
                <path d="M448.9,265.440058 C442.38257,265.447625 436.443163,269.180634 433.61,275.050058 L370.37,275.050058 C370.37,275.470058 370.37,275.870058 370.37,276.290058 C370.37,280.860058 370.24,285.290058 370.05,289.800058 L433.59,289.800058 C437.23405,297.387253 445.881528,301.165615 453.924577,298.684892 C461.967626,296.204168 466.984495,288.211302 465.721763,279.889635 C464.459032,271.567968 457.296908,265.423145 448.88,265.440058 L448.9,265.440058 Z" id="Path"></path>
                <path d="M441.52,331.800058 C435.006181,331.811455 429.07159,335.543879 426.24,341.410058 L363.24,341.410058 C362.08,346.410058 360.776667,351.326725 359.33,356.160058 L426.25,356.160058 C429.894607,363.748383 438.543999,367.52656 446.587764,365.043882 C454.631528,362.561204 459.646935,354.565436 458.380751,346.24302 C457.114566,337.920604 449.948156,331.778196 441.53,331.800058 L441.52,331.800058 Z" id="Path"></path>
                <rect id="Rectangle" x="3.55271368e-14" y="142.330058" width="77.42" height="14.75"></rect>
                <rect id="Rectangle" x="3.55271368e-14" y="208.690058" width="77.42" height="14.75"></rect>
                <rect id="Rectangle" x="3.55271368e-14" y="275.050058" width="77.42" height="14.75"></rect>
                <rect id="Rectangle" x="3.55271368e-14" y="341.410058" width="77.42" height="14.75"></rect>
                <rect id="Rectangle" x="3.55271368e-14" y="407.770058" width="77.42" height="14.75"></rect>
                <path d="M419.43,398.160058 C412.916181,398.171455 406.98159,401.903879 404.15,407.770058 L336.43,407.770058 C333.81,412.090058 331.08,416.340058 328.17,420.470058 C327.67,421.180058 327.17,421.830058 326.66,422.470058 L404.08,422.470058 C407.700332,430.071315 416.339154,433.877547 424.391665,431.4193 C432.444176,428.961053 437.484291,420.978955 436.242022,412.65173 C434.999754,404.324505 427.849377,398.161004 419.43,398.160058 Z" id="Path"></path>
                <path d="M312.49,530.880058 C305.976181,530.891455 300.04159,534.623879 297.21,540.490058 L2.84217094e-14,540.490058 L2.84217094e-14,555.240058 L297.21,555.240058 C300.854607,562.828383 309.503999,566.60656 317.547764,564.123882 C325.591528,561.641204 330.606935,553.645436 329.340751,545.32302 C328.074566,537.000604 320.908156,530.858196 312.49,530.880058 Z" id="Path"></path>
                <path d="M383.83,68.7300582 C377.487504,68.7392476 371.677545,72.2784263 368.76,77.9100582 L303.03,77.9100582 L275.85,51.2900582 L8.52651283e-14,51.2900582 L8.52651283e-14,66.0000582 L269.84,66.0000582 L297.02,92.6200582 L368.32,92.6200582 C371.761939,100.370244 380.389109,104.398581 388.540948,102.061947 C396.692786,99.7253136 401.875921,91.7384073 400.689531,83.3416931 C399.503141,74.9449788 392.310103,68.7067288 383.83,68.7200582 L383.83,68.7300582 Z" id="Path"></path>
                <path d="M383.83,463.520058 C377.124468,463.527094 371.049544,467.475207 368.32,473.600058 L297.02,473.600058 L269.84,500.210058 L2.84217094e-14,500.210058 L2.84217094e-14,514.930058 L275.85,514.930058 L303.03,488.320058 L368.76,488.320058 C372.593454,495.743629 381.253029,499.281223 389.187839,496.665202 C397.12265,494.04918 401.980351,486.055086 400.647102,477.807224 C399.313854,469.559362 392.184908,463.502883 383.83,463.520058 Z" id="Path"></path>
            </g>
            <path d="M291.86,407.82 L291.86,332.5 L166.73,331.69 L185.42,265.59 C201.87,208 219,146.52 233.8,86.15 L291.86,86.15 L291.86,9.26 L176.86,10.02 L0,555.8 L103.35,555.8 L145,408.37" id="a" fill="#0071BC"></path>
        </g>
    </g>
</svg>