<svg xmlns="http://www.w3.org/2000/svg" viewBox="0 0 1518 683.84"><defs><style>.cls-1{fill:#fff;}</style></defs><title>Asset 1</title><g id="Layer_2" data-name="Layer 2"><g id="Layer_1-2" data-name="Layer 1"><path class="cls-1" d="M831.09,10h98.22V257.48h2.82L1126.45,10h108.94L929.31,394.5V555.8H831.09Zm166.3,267.21L1055,201.3l198,354.5H1144.57Z"/><path class="cls-1" d="M1210.59,86.93s69.83-.78,69.93-1.23h3.34c14.86,60.37,32.3,122.32,48.75,179.89l18.69,66.1h59.48v76.68H1373l41.69,147.43H1518L1341.17,10,1271,9.26"/><polygon class="cls-1" points="1351.3 331.69 1213.45 331.69 1200.9 408.37 1372.98 408.37 1351.3 331.69"/><polygon class="cls-1" points="1410.78 331.69 1351.3 331.69 1372.98 408.37 1410.78 408.37 1410.78 331.69"/><polygon class="cls-1" points="1159.59 330.93 1200.39 407.82 1200.9 408.37 1222.87 331.69 1159.59 330.93"/><path class="cls-1" d="M291.86,407.82V332.5l-125.13-.81,18.69-66.1C201.87,208,219,146.52,233.8,86.15h58.06V9.26l-115,.76L0,555.8H103.35L145,408.37"/><path class="cls-1" d="M11.92,665.59a3.05,3.05,0,0,0,1.62-.45,1.08,1.08,0,0,0,.3-.79v-26H2.06a1,1,0,0,0-.83.38,3.8,3.8,0,0,0-.41,1.56H0V628H.82a3.7,3.7,0,0,0,.41,1.56,1,1,0,0,0,.83.38H35.91a.94.94,0,0,0,.82-.38,3.7,3.7,0,0,0,.41-1.56H38v12.34h-.83a3.8,3.8,0,0,0-.41-1.56.94.94,0,0,0-.82-.38H24.12v26a1.09,1.09,0,0,0,.31.79,3,3,0,0,0,1.61.45v.84H11.92Z"/><path class="cls-1" d="M196.82,660.32c.92,0,1.51-.57,1.78-1.73h.83v9.08h-.69q-.35-1-.72-1.11a3.88,3.88,0,0,0-1.2-.13H166.26v-.84a5.13,5.13,0,0,0,1.33-.27.92.92,0,0,0,.59-1V638a.91.91,0,0,0-.59-1,5.12,5.12,0,0,0-1.33-.28v-.83h31.11a1.5,1.5,0,0,0,.82-.28c.28-.19.41-.6.41-1.25h.83v9.29h-.83c0-.69-.13-1.14-.41-1.35a1.34,1.34,0,0,0-.82-.31h-20v5.62h12.88a1.43,1.43,0,0,0,.83-.31,1.59,1.59,0,0,0,.41-1.29h.82v9h-.82a1.56,1.56,0,0,0-.41-1.28,1.38,1.38,0,0,0-.83-.32H177.36v6.87Z"/><path class="cls-1" d="M358.83,647.63l-1-.49a3.86,3.86,0,0,1,.17-.55,1.81,1.81,0,0,0,.11-.63c0-.27-.29-.6-.86-1a10,10,0,0,0-2.19-1,26.2,26.2,0,0,0-3-.8,16.81,16.81,0,0,0-3.39-.35,16.62,16.62,0,0,0-3.91.49,11.47,11.47,0,0,0-3.56,1.5,8.76,8.76,0,0,0-2.61,2.57,7.51,7.51,0,0,0,0,7.56,8.55,8.55,0,0,0,2.61,2.61,11.47,11.47,0,0,0,3.56,1.5,16.11,16.11,0,0,0,3.91.49,13.87,13.87,0,0,0,3.87-.52,18.17,18.17,0,0,0,3.22-1.25,9.86,9.86,0,0,0,2.19-1.46c.53-.48.79-.84.79-1.07v-.63a2,2,0,0,0-.07-.62l.76-.49L366,663l-.83.48c-.41-.5-.77-.75-1.09-.75a5.24,5.24,0,0,0-1.47.62c-.8.41-1.87.88-3.19,1.4a26.93,26.93,0,0,1-4.7,1.34,29.83,29.83,0,0,1-6,.56,35.31,35.31,0,0,1-7.37-.77,18.64,18.64,0,0,1-6.41-2.6,13.94,13.94,0,0,1-4.52-4.82,16.22,16.22,0,0,1,0-14.5,14.21,14.21,0,0,1,4.52-4.85,19.67,19.67,0,0,1,6.41-2.74,31.22,31.22,0,0,1,7.37-.87,25,25,0,0,1,4.38.38c1.42.26,2.72.52,3.91.8s2.21.54,3.08.8a8,8,0,0,0,1.85.38,1,1,0,0,0,.62-.21,1.78,1.78,0,0,0,.41-.42l.82.28Z"/><path class="cls-1" d="M505.35,664.35a.92.92,0,0,0,.55,1,4.88,4.88,0,0,0,1.37.27v.84h-13v-.84a4.88,4.88,0,0,0,1.37-.27.92.92,0,0,0,.55-1V638a.9.9,0,0,0-.55-1,4.85,4.85,0,0,0-1.37-.28v-.83h13v.83a4.85,4.85,0,0,0-1.37.28.9.9,0,0,0-.55,1v8.74H520.5V638a.91.91,0,0,0-.55-1,4.85,4.85,0,0,0-1.37-.28v-.83h13v.83a4.78,4.78,0,0,0-1.37.28.9.9,0,0,0-.55,1v26.36a.92.92,0,0,0,.55,1,4.81,4.81,0,0,0,1.37.27v.84h-13v-.84a4.88,4.88,0,0,0,1.37-.27.93.93,0,0,0,.55-1V653.8H505.35Z"/><path class="cls-1" d="M697.58,664.35a.92.92,0,0,0,.55,1,4.81,4.81,0,0,0,1.37.27v.84H686.82v-.84a6.92,6.92,0,0,0,1.27-.13c.48-.1.72-.35.72-.77s-.5-1.19-1.51-2.32-2.29-2.53-3.87-4.2l-5.31-5.58q-3-3.09-5.83-6.56l-.13.14v18.18a.93.93,0,0,0,.51,1,4.22,4.22,0,0,0,1.27.27v.84H662.22v-.84a4.16,4.16,0,0,0,1.2-.27.93.93,0,0,0,.51-1V638a.9.9,0,0,0-.55-1,4.64,4.64,0,0,0-1.3-.28v-.83h16.31v.83a3.49,3.49,0,0,0-1,.28c-.32.13-.48.46-.48,1a8.06,8.06,0,0,0,1.14,1.42c.75.85,1.72,1.93,2.91,3.22s2.51,2.73,4,4.3,2.93,3.15,4.39,4.72V638a.9.9,0,0,0-.55-1,4.85,4.85,0,0,0-1.37-.28v-.83H699.5v.83a4.78,4.78,0,0,0-1.37.28.9.9,0,0,0-.55,1Z"/><path class="cls-1" d="M846.64,635.49a24.21,24.21,0,0,1,6.47.9,18.37,18.37,0,0,1,5.9,2.81,14.79,14.79,0,0,1,4.28,4.89,16.15,16.15,0,0,1,0,14.18A14.58,14.58,0,0,1,859,663.1a17.54,17.54,0,0,1-5.9,2.7,25.38,25.38,0,0,1-13,0,17.4,17.4,0,0,1-5.89-2.7,15.33,15.33,0,0,1-4.29-19,14.71,14.71,0,0,1,4.29-4.89,18.22,18.22,0,0,1,5.89-2.81A24.23,24.23,0,0,1,846.64,635.49Zm0,7.35a11.2,11.2,0,0,0-3.64.59,9.71,9.71,0,0,0-3,1.68,7.47,7.47,0,0,0-2,2.61,8.77,8.77,0,0,0,0,7,7.51,7.51,0,0,0,2,2.62,9.69,9.69,0,0,0,3,1.67,11.2,11.2,0,0,0,3.64.59,11.06,11.06,0,0,0,3.66-.59,9.76,9.76,0,0,0,3-1.67,7.53,7.53,0,0,0,2-2.62,8.77,8.77,0,0,0,0-7,7.5,7.5,0,0,0-2-2.61,9.79,9.79,0,0,0-3-1.68A11.06,11.06,0,0,0,846.64,642.84Z"/><path class="cls-1" d="M995.63,638a.91.91,0,0,0-.55-1,4.72,4.72,0,0,0-1.3-.28v-.83h12.81v.83a4.34,4.34,0,0,0-1.27.28c-.34.13-.51.46-.51,1v21.36h18.78a1.36,1.36,0,0,0,.82-.31c.27-.21.41-.68.41-1.42h.82V668h-.82c0-.74-.14-1.18-.41-1.31a1.82,1.82,0,0,0-.82-.21H993.78v-.84a4.73,4.73,0,0,0,1.3-.27.93.93,0,0,0,.55-1Z"/><path class="cls-1" d="M1170.86,635.49a24.1,24.1,0,0,1,6.47.9,18.37,18.37,0,0,1,5.9,2.81,14.68,14.68,0,0,1,4.28,4.89,14.69,14.69,0,0,1-4.28,19,17.54,17.54,0,0,1-5.9,2.7,25.38,25.38,0,0,1-12.95,0,17.49,17.49,0,0,1-5.89-2.7,15.3,15.3,0,0,1-4.28-19,14.57,14.57,0,0,1,4.28-4.89,18.32,18.32,0,0,1,5.89-2.81A24.23,24.23,0,0,1,1170.86,635.49Zm0,7.35a11.14,11.14,0,0,0-3.63.59,9.65,9.65,0,0,0-3,1.68,7.47,7.47,0,0,0-2,2.61,8.77,8.77,0,0,0,0,7,7.51,7.51,0,0,0,2,2.62,9.63,9.63,0,0,0,3,1.67,11.14,11.14,0,0,0,3.63.59,11,11,0,0,0,3.66-.59,9.7,9.7,0,0,0,3-1.67,7.51,7.51,0,0,0,2-2.62,8.77,8.77,0,0,0,0-7,7.47,7.47,0,0,0-2-2.61,9.72,9.72,0,0,0-3-1.68A11,11,0,0,0,1170.86,642.84Z"/><path class="cls-1" d="M1351.37,659.28a2.3,2.3,0,0,0,.34,1.25,1.08,1.08,0,0,0,1,.56h.62v.83c-1.1.55-2.35,1.12-3.77,1.7a42.49,42.49,0,0,1-4.59,1.56,40.36,40.36,0,0,1-5.07,1.07,35.24,35.24,0,0,1-5.21.39,30.25,30.25,0,0,1-7.34-.84,14.58,14.58,0,0,1-5.72-2.74,13.11,13.11,0,0,1-3.7-4.85,17,17,0,0,1-1.33-7,15.21,15.21,0,0,1,1.51-7,13.79,13.79,0,0,1,4-4.86,17.58,17.58,0,0,1,5.79-2.84,24.08,24.08,0,0,1,6.75-.94,33.19,33.19,0,0,1,4.76.31,37.67,37.67,0,0,1,3.81.73c1.09.28,2,.52,2.7.73a6.35,6.35,0,0,0,1.41.31.94.94,0,0,0,.72-.21,5.71,5.71,0,0,1,.44-.48l.82.14-3.56,9.15-.82-.42v-.48c0-.42-.31-.81-.93-1.18a11.83,11.83,0,0,0-2.29-1,20,20,0,0,0-2.91-.69,18.32,18.32,0,0,0-2.78-.24,16.64,16.64,0,0,0-4,.48,8.92,8.92,0,0,0-3.32,1.6,7.91,7.91,0,0,0-2.22,2.81,9.38,9.38,0,0,0-.83,4.13,10,10,0,0,0,.83,4.26,7.9,7.9,0,0,0,2.26,2.92A9.62,9.62,0,0,0,1332,660a15,15,0,0,0,4.18.56,23.11,23.11,0,0,0,3.36-.24,19.46,19.46,0,0,0,3.29-.8v-4.51h-5.75a.94.94,0,0,0-1,.63,3.35,3.35,0,0,0-.21,1h-.82v-8.6h.82a3.45,3.45,0,0,0,.21,1,1,1,0,0,0,1,.62h14.25Z"/><path class="cls-1" d="M1503.79,664.35c0,.5.15.83.48,1a3.4,3.4,0,0,0,1,.27v.84h-12.06v-.84a3.46,3.46,0,0,0,1-.27,1,1,0,0,0,.48-1v-9l-13.09-18a1.36,1.36,0,0,0-.92-.55,4.89,4.89,0,0,0-1.06-.14v-.83h14.73v.83a5.69,5.69,0,0,0-1,.1.62.62,0,0,0-.59.66,3.1,3.1,0,0,0,.65,1.28c.44.63,1,1.38,1.62,2.26s1.34,1.81,2.12,2.81,1.51,1.95,2.19,2.88a19.21,19.21,0,0,1,1.24-2l2-2.91c.71-1,1.34-1.94,1.88-2.77a4.59,4.59,0,0,0,.82-1.6.61.61,0,0,0-.54-.66,5,5,0,0,0-.89-.1v-.83h13.57v.83a4.22,4.22,0,0,0-1,.14,1.34,1.34,0,0,0-.89.55l-11.72,17.69Z"/><rect class="cls-1" y="681.99" width="1517.36" height="1.84"/><path class="cls-1" d="M634.06,0a17,17,0,0,0-15.28,9.61H321.57V24.36H618.78A17,17,0,1,0,634.06,0Z"/><path class="cls-1" d="M748.35,132.72a17,17,0,0,0-15.29,9.61h-82q5.3,7.18,9.89,14.75h72.11a17,17,0,1,0,15.29-24.36Z"/><path class="cls-1" d="M766.78,199.08a17,17,0,0,0-15.28,9.61H683.2q2,7.25,3.56,14.75H751.5a17,17,0,1,0,15.28-24.36Z"/><path class="cls-1" d="M770.47,265.44a17,17,0,0,0-15.29,9.61H691.94c0,.42,0,.82,0,1.24,0,4.57-.13,9-.32,13.51h63.54a17,17,0,1,0,15.29-24.36Z"/><path class="cls-1" d="M763.09,331.8a17,17,0,0,0-15.28,9.61h-63q-1.74,7.5-3.91,14.75h66.92a17,17,0,1,0,15.28-24.36Z"/><rect class="cls-1" x="321.57" y="142.33" width="77.42" height="14.75"/><rect class="cls-1" x="321.57" y="208.69" width="77.42" height="14.75"/><rect class="cls-1" x="321.57" y="275.05" width="77.42" height="14.75"/><rect class="cls-1" x="321.57" y="341.41" width="77.42" height="14.75"/><rect class="cls-1" x="321.57" y="407.77" width="77.42" height="14.75"/><path class="cls-1" d="M741,398.16a17,17,0,0,0-15.28,9.61H658c-2.62,4.32-5.35,8.57-8.26,12.7-.5.71-1,1.36-1.51,2h77.42A17,17,0,1,0,741,398.16Z"/><path class="cls-1" d="M634.06,530.88a17,17,0,0,0-15.28,9.61H321.57v14.75H618.78a17,17,0,1,0,15.28-24.36Z"/><path class="cls-1" d="M705.4,68.73a17,17,0,0,0-15.07,9.18H624.6L597.42,51.29H321.57V66H591.41l27.18,26.62h71.3a17,17,0,1,0,15.51-23.9Z"/><path class="cls-1" d="M705.4,463.52a17,17,0,0,0-15.51,10.08h-71.3l-27.18,26.61H321.57v14.72H597.42l27.18-26.61h65.73a17,17,0,1,0,15.07-24.8Z"/></g></g></svg>