<?xml version="1.0" encoding="UTF-8"?>
<svg width="480px" height="221px" viewBox="0 0 480 221" version="1.1" xmlns="http://www.w3.org/2000/svg" xmlns:xlink="http://www.w3.org/1999/xlink">
    <!-- Generator: Sketch 53.2 (72643) - https://sketchapp.com -->
    <title>adkatech_logo_on_white_background</title>
    <desc>Created with Sketch.</desc>
    <g id="Page-1" stroke="none" stroke-width="1" fill="none" fill-rule="evenodd">
        <g id="adkatech_original">
            <rect id="Rectangle" fill-opacity="0" fill="#FFFFFF" x="0" y="1.42108547e-14" width="480" height="221"></rect>
            <rect id="Rectangle" fill="#004972" fill-rule="nonzero" x="63" y="155.865952" width="353" height="1"></rect>
            <g id="technology" transform="translate(63.000000, 148.000000)" fill="#004972" fill-rule="nonzero">
                <path d="M2.77191041,5.6385 C2.90480763,5.63921131 3.03534103,5.61582253 3.14862978,5.571 C3.19587034,5.53925145 3.22105503,5.49647244 3.21839262,5.4525 L3.21839262,1.5525 L0.479038208,1.5525 C0.404225939,1.55034498 0.332382942,1.57156171 0.286027668,1.6095 C0.228653476,1.68220038 0.196140278,1.76199777 0.190685112,1.8435 L0,1.8435 L0,-5.68434189e-14 L0.190685112,-3.97903932e-14 C0.195401068,0.0815736123 0.227955375,0.161471908 0.286027668,0.234 C0.332382942,0.271938291 0.404225939,0.293155012 0.479038208,0.291 L8.35061265,0.291 C8.42509346,0.294249406 8.496995,0.272756446 8.54129776,0.234 C8.59937005,0.161471908 8.63192437,0.0815736123 8.63664032,-5.68434189e-14 L8.83662714,-5.68434189e-14 L8.83662714,1.851 L8.6436166,1.851 C8.63816143,1.76949777 8.60564824,1.68970038 8.54827404,1.617 C8.50397129,1.57824355 8.43206975,1.55675059 8.35758893,1.56 L5.60893281,1.56 L5.60893281,5.46 C5.60715823,5.50415979 5.633161,5.54690364 5.68102108,5.5785 C5.7933834,5.62342728 5.92322294,5.64683622 6.05541502,5.646 L6.05541502,5.772 L2.77191041,5.772 L2.77191041,5.6385 Z" id="Path"></path>
                <path d="M45.7690777,4.848 C45.9830171,4.848 46.1202174,4.7625 46.183004,4.5885 L46.3760145,4.5885 L46.3760145,5.9505 L46.2155599,5.9505 C46.1613,5.85049999 46.1054898,5.79499999 46.0481291,5.784 C45.9572586,5.76815002 45.8631022,5.76157042 45.7690777,5.7645 L38.6625692,5.7645 L38.6625692,5.6385 C38.7679887,5.63389459 38.8719926,5.62027545 38.9718511,5.598 C39.066899,5.57527941 39.1241825,5.51265199 39.1090514,5.448 L39.1090514,1.5 C39.1251326,1.43523055 39.0675181,1.37224093 38.9718511,1.35 C38.8721089,1.32719645 38.7680987,1.31307203 38.6625692,1.308 L38.6625692,1.1835 L45.8969763,1.1835 C45.9655592,1.18190467 46.0318888,1.167295 46.0876614,1.1415 C46.1527734,1.113 46.183004,1.0515 46.183004,0.954 L46.3760145,0.954 L46.3760145,2.3475 L46.183004,2.3475 C46.183004,2.244 46.1527734,2.1765 46.0876614,2.145 C46.0339798,2.11614777 45.9668226,2.09977096 45.8969763,2.0985 L41.2461199,2.0985 L41.2461199,2.9415 L44.2412714,2.9415 C44.3116177,2.93957142 44.3791993,2.92328965 44.4342819,2.895 C44.509164,2.84288229 44.5441187,2.77194103 44.5296245,2.7015 L44.7203096,2.7015 L44.7203096,4.0515 L44.5296245,4.0515 C44.5444068,3.98149758 44.509367,3.91093444 44.4342819,3.8595 C44.3799225,3.83019646 44.3120584,3.81331924 44.2412714,3.8115 L41.2437945,3.8115 L41.2437945,4.842 L45.7690777,4.848 Z" id="Path"></path>
                <path d="M83.4433399,2.9445 L83.2107971,2.871 C83.2207727,2.84290362 83.2339867,2.81532695 83.2503294,2.7885 C83.2674841,2.75822907 83.2761458,2.72622968 83.2759091,2.694 C83.2759091,2.6535 83.2084717,2.604 83.0759223,2.544 C82.9161502,2.48095325 82.7451552,2.43058833 82.5666535,2.394 C82.3379927,2.34513946 82.1050409,2.30506913 81.869025,2.274 C81.6096875,2.2393188 81.345557,2.22172844 81.0807049,2.2215 C80.7741779,2.22265488 80.4689522,2.24732826 80.1714625,2.295 C79.8777753,2.33926972 79.5978551,2.41534852 79.34361,2.52 C79.1014434,2.61947564 78.8946103,2.75084717 78.7366733,2.9055 C78.4202143,3.25594125 78.4202143,3.68905875 78.7366733,4.0395 C78.8923816,4.19694833 79.0995203,4.33056146 79.34361,4.431 C79.5978551,4.53565148 79.8777753,4.61173028 80.1714625,4.656 C80.4687384,4.7044079 80.7741032,4.72909251 81.0807049,4.7295 C81.3848865,4.7310041 81.6878684,4.70474393 81.9806456,4.6515 C82.2389058,4.60447956 82.4896344,4.54169595 82.7294335,4.464 C82.9135997,4.40600882 83.0848817,4.33235273 83.2387022,4.245 C83.3619499,4.173 83.4224111,4.119 83.4224111,4.0845 L83.4224111,3.99 C83.4245612,3.95864159 83.4190683,3.9272598 83.4061331,3.897 L83.5828656,3.8235 L85.1106719,5.25 L84.9176614,5.322 C84.8223188,5.247 84.7386034,5.2095 84.6641897,5.2095 C84.5435526,5.22906359 84.4282708,5.26042703 84.3223518,5.3025 C84.1363175,5.364 83.8874967,5.4345 83.5805402,5.5125 C83.2264207,5.60072964 82.8605976,5.66800661 82.4875889,5.7135 C82.0280913,5.771808 81.5606212,5.79995157 81.092332,5.7975 C80.5163528,5.79788007 79.9419104,5.75916695 79.3784914,5.682 C78.8482543,5.61312761 78.3426843,5.48085041 77.887892,5.292 C77.4527606,5.10882086 77.092269,4.86085497 76.8367984,4.569 C76.3064492,3.8843555 76.3064492,3.07864451 76.8367984,2.394 C77.0933369,2.10143424 77.4535029,1.85215023 77.887892,1.6665 C78.3428599,1.473347 78.8476522,1.33416165 79.3784914,1.2555 C79.9396961,1.16820166 80.51504,1.12439223 81.092332,1.125 C81.4337807,1.1246693 81.7746108,1.14374304 82.1108696,1.182 C82.4410804,1.221 82.743386,1.26 83.020112,1.302 C83.2968379,1.344 83.5340316,1.383 83.7363439,1.422 C83.8757531,1.45189026 84.0201605,1.47102355 84.1665481,1.479 C84.2187247,1.47923098 84.2695055,1.46813627 84.3107246,1.4475 C84.347691,1.43004783 84.3799098,1.40875846 84.4060672,1.3845 L84.5967523,1.4265 L83.4433399,2.9445 Z" id="Path"></path>
                <path d="M117.515514,5.4525 C117.499108,5.5155767 117.552043,5.57765924 117.643412,5.6025 C117.746048,5.6257811 117.853341,5.63942069 117.961996,5.643 L117.961996,5.769 L114.938939,5.769 L114.938939,5.643 C115.047595,5.63942069 115.154887,5.6257811 115.257523,5.6025 C115.348893,5.57765924 115.401828,5.5155767 115.385422,5.4525 L115.385422,1.5 C115.403669,1.43672689 115.350136,1.37394286 115.257523,1.35 C115.155031,1.32614692 115.047722,1.31199992 114.938939,1.308 L114.938939,1.1835 L117.961996,1.1835 L117.961996,1.308 C117.853214,1.31199992 117.745904,1.32614692 117.643412,1.35 C117.5508,1.37394286 117.497266,1.43672689 117.515514,1.5 L117.515514,2.811 L121.038538,2.811 L121.038538,1.5 C121.055849,1.43682544 121.002621,1.37440028 120.910639,1.35 C120.808147,1.32614692 120.700837,1.31199992 120.592055,1.308 L120.592055,1.1835 L123.615112,1.1835 L123.615112,1.308 C123.5063,1.31185079 123.398957,1.32600217 123.296528,1.35 C123.203916,1.37394286 123.150382,1.43672689 123.16863,1.5 L123.16863,5.454 C123.152224,5.5170767 123.205159,5.57915924 123.296528,5.604 C123.399104,5.62742391 123.506429,5.64106764 123.615112,5.6445 L123.615112,5.7705 L120.592055,5.7705 L120.592055,5.6445 C120.700711,5.64092069 120.808003,5.6272811 120.910639,5.604 C121.001413,5.57873471 121.054069,5.5169796 121.038538,5.454 L121.038538,3.87 L117.515514,3.87 L117.515514,5.4525 Z" id="Path"></path>
                <path d="M162.21722,5.4525 C162.200814,5.5155767 162.253749,5.57765924 162.345119,5.6025 C162.447694,5.62592391 162.555019,5.63956764 162.663702,5.643 L162.663702,5.769 L159.715059,5.769 L159.715059,5.643 C159.814224,5.6423838 159.913087,5.63585603 160.010389,5.6235 C160.122009,5.6085 160.177819,5.571 160.177819,5.508 C160.177819,5.445 160.061548,5.3295 159.82668,5.16 C159.591812,4.9905 159.294157,4.7805 158.926739,4.53 L157.691937,3.693 C157.226851,3.384 156.774943,3.056 156.336212,2.709 L156.305982,2.73 L156.305982,5.457 C156.289001,5.5184874 156.337448,5.57976233 156.424578,5.607 C156.519193,5.63024631 156.618815,5.64390797 156.719908,5.6475 L156.719908,5.7735 L153.994506,5.7735 L153.994506,5.6475 C154.09012,5.64299378 154.184165,5.62934462 154.273557,5.607 C154.360688,5.57976233 154.409135,5.5184874 154.392154,5.457 L154.392154,1.5 C154.410402,1.43672689 154.356868,1.37394286 154.264256,1.35 C154.167136,1.32670989 154.065322,1.31256465 153.96195,1.308 L153.96195,1.1835 L157.754723,1.1835 L157.754723,1.308 C157.674396,1.31444121 157.596014,1.32859789 157.522181,1.35 C157.447767,1.3695 157.41056,1.419 157.41056,1.5 C157.486168,1.57723168 157.575102,1.64868762 157.675659,1.713 C157.850066,1.8405 158.075632,2.0025 158.352358,2.196 C158.629084,2.3895 158.936041,2.6055 159.28253,2.841 C159.629018,3.0765 159.96388,3.3135 160.303393,3.549 L160.303393,1.5 C160.32164,1.43672689 160.268107,1.37394286 160.175494,1.35 C160.073002,1.32614692 159.965693,1.31199992 159.85691,1.308 L159.85691,1.1835 L162.663702,1.1835 L162.663702,1.308 C162.55489,1.31185079 162.447547,1.32600217 162.345119,1.35 C162.252506,1.37394286 162.198973,1.43672689 162.21722,1.5 L162.21722,5.4525 Z" id="Path"></path>
                <path d="M196.880053,1.1235 C197.388722,1.12444987 197.894845,1.16986315 198.384605,1.2585 C198.877318,1.34497702 199.342003,1.48773547 199.756607,1.68 C200.168569,1.87388083 200.508535,2.12442804 200.751891,2.4135 C201.260232,3.08458767 201.260232,3.86941233 200.751891,4.5405 C200.507525,4.82707995 200.166621,5.07465642 199.754282,5.265 C199.339975,5.45386368 198.874681,5.59121328 198.382279,5.67 C197.391683,5.83929276 196.349819,5.83929276 195.359223,5.67 C194.86738,5.59150684 194.402767,5.45412543 193.989545,5.265 C192.643858,4.59085684 192.22586,3.39670849 192.991937,2.415 C193.235445,2.12554111 193.576315,1.87491357 193.989545,1.6815 C194.403058,1.48897378 194.867058,1.34618382 195.359223,1.26 C195.854135,1.16994843 196.365828,1.12402209 196.880053,1.1235 L196.880053,1.1235 Z M196.880053,2.226 C196.592258,2.22513061 196.306231,2.25503584 196.033597,2.3145 C195.779665,2.37106174 195.54342,2.4563994 195.335968,2.5665 C195.137784,2.67309775 194.978907,2.80683745 194.870883,2.958 C194.644952,3.29282949 194.644952,3.67317051 194.870883,4.008 C194.978881,4.1595993 195.137735,4.29383196 195.335968,4.401 C195.54354,4.51062121 195.779791,4.59545265 196.033597,4.6515 C196.306231,4.71096415 196.592258,4.74086938 196.880053,4.74 C197.169454,4.74159885 197.457197,4.71167862 197.731159,4.6515 C197.984824,4.59524781 198.221021,4.51043569 198.428788,4.401 C198.626908,4.29376269 198.785742,4.15954762 198.893874,4.008 C199.119804,3.67317051 199.119804,3.29282949 198.893874,2.958 C198.785649,2.80691554 198.626803,2.67320236 198.428788,2.5665 C198.221113,2.45661055 197.984929,2.37129501 197.731159,2.3145 C197.457197,2.25432138 197.169454,2.22440115 196.880053,2.226 L196.880053,2.226 Z" id="Shape"></path>
                <path d="M231.526607,1.5 C231.543918,1.43682544 231.490691,1.37440028 231.398709,1.35 C231.301518,1.32686773 231.19974,1.31272742 231.096403,1.308 L231.096403,1.1835 L234.075277,1.1835 L234.075277,1.308 C233.974123,1.31235251 233.874562,1.32651144 233.779947,1.35 C233.700883,1.3695 233.66135,1.419 233.66135,1.5 L233.66135,4.704 L238.028505,4.704 C238.098281,4.70250119 238.165328,4.68615143 238.21919,4.6575 C238.281976,4.626 238.314532,4.5555 238.314532,4.4445 L238.505217,4.4445 L238.505217,6 L238.314532,6 C238.314532,5.889 238.281976,5.823 238.21919,5.8035 C238.160349,5.78347908 238.095021,5.77268723 238.028505,5.772 L231.096403,5.772 L231.096403,5.646 C231.199623,5.64173549 231.301394,5.62810119 231.398709,5.6055 C231.489483,5.58023471 231.542139,5.5184796 231.526607,5.4555 L231.526607,1.5 Z" id="Path"></path>
                <path d="M272.275086,1.1235 C272.783778,1.12424599 273.289942,1.16966308 273.779638,1.2585 C274.272352,1.34497702 274.737035,1.48773547 275.15164,1.68 C275.564185,1.87346851 275.904279,2.124109 276.146924,2.4135 C276.979441,3.38922898 276.552329,4.61226553 275.15164,5.2635 C274.737333,5.45236368 274.27204,5.58971328 273.779638,5.6685 C272.792717,5.83647076 271.755129,5.83647076 270.768208,5.6685 C270.276529,5.58970474 269.812001,5.4523482 269.398531,5.2635 C268.051194,4.5899511 267.633764,3.39463207 268.403248,2.4135 C268.645169,2.12378532 268.985393,1.87304937 269.398531,1.68 C269.812304,1.48775608 270.27622,1.34499145 270.768208,1.2585 C271.258729,1.16976511 271.765642,1.12435126 272.275086,1.1235 Z M272.275086,2.226 C271.988051,2.22513018 271.702788,2.25503764 271.430955,2.3145 C271.1769,2.37088413 270.940608,2.45623873 270.733327,2.5665 C270.535142,2.67309775 270.376264,2.80683745 270.268241,2.958 C270.042309,3.29282949 270.042309,3.67317051 270.268241,4.008 C270.376239,4.1595993 270.535093,4.29383196 270.733327,4.401 C270.940729,4.51078236 271.177028,4.5956307 271.430955,4.6515 C271.702788,4.71096235 271.988051,4.74086982 272.275086,4.74 C272.564506,4.7417721 272.852296,4.7118472 273.126192,4.6515 C273.379978,4.59542319 273.616221,4.51059454 273.823821,4.401 C274.022054,4.29383196 274.180909,4.1595993 274.288906,4.008 C274.514838,3.67317051 274.514838,3.29282949 274.288906,2.958 C274.180883,2.80683745 274.022005,2.67309775 273.823821,2.5665 C273.616341,2.45642598 273.380104,2.37109111 273.126192,2.3145 C272.852296,2.25415279 272.564506,2.2242279 272.275086,2.226 Z" id="Shape"></path>
                <path d="M314.25139,4.692 C314.249351,4.75809541 314.276795,4.82317714 314.330455,4.8795 C314.376642,4.93390945 314.466943,4.96652817 314.562997,4.9635 L314.707174,4.9635 L314.707174,5.088 C314.451377,5.1705 314.160698,5.256 313.830487,5.343 C313.481892,5.43403939 313.12552,5.51216652 312.763116,5.577 C312.375853,5.64673456 311.982044,5.70034501 311.584124,5.7375 C311.183076,5.77631022 310.778112,5.79586393 310.372576,5.796 C309.797776,5.79914199 309.224549,5.75682649 308.665711,5.67 C308.180946,5.59761937 307.726822,5.4572998 307.335567,5.259 C306.964072,5.06351332 306.669289,4.81426641 306.475158,4.5315 C306.258235,4.19952214 306.152826,3.841663 306.165876,3.4815 C306.151703,3.11846169 306.272085,2.75848561 306.517016,2.4315 C306.735801,2.14549431 307.05415,1.89599547 307.447187,1.7025 C307.851433,1.50816079 308.307919,1.36373113 308.79361,1.2765 C309.303823,1.18173642 309.832335,1.13426106 310.363274,1.1355 C310.733494,1.13385506 311.103416,1.14939518 311.470178,1.182 C311.768226,1.2086603 312.063948,1.24520875 312.356166,1.2915 C312.609638,1.3335 312.821252,1.3695 312.984032,1.401 C313.090232,1.42448977 313.200236,1.44009056 313.311917,1.4475 C313.372085,1.45243842 313.43273,1.44102895 313.479348,1.416 C313.511304,1.39076411 313.545464,1.36672503 313.581667,1.344 L313.772352,1.365 L312.944499,2.7375 L312.753814,2.6745 L312.753814,2.6025 C312.753814,2.5395 312.681726,2.481 312.537549,2.4255 C312.368749,2.36351353 312.190247,2.31323311 312.005026,2.2755 C311.78378,2.23015449 311.557581,2.19555778 311.328327,2.172 C311.114569,2.14941643 310.898453,2.13738153 310.681858,2.136 C310.368425,2.13561115 310.056078,2.1597883 309.751686,2.208 C309.471244,2.25246118 309.208285,2.33420566 308.979644,2.448 C308.75987,2.56119529 308.583263,2.70539034 308.463399,2.8695 C308.327078,3.06388974 308.261078,3.27573147 308.270389,3.489 C308.261429,3.70854586 308.327317,3.92668276 308.463399,4.128 C308.582484,4.2987288 308.762584,4.44882841 308.988946,4.566 C309.216454,4.67419231 309.473691,4.75359319 309.747036,4.8 C310.063296,4.85738773 310.39054,4.88566716 310.719065,4.884 C310.980524,4.88427628 311.241665,4.87224433 311.500408,4.848 C311.760352,4.82241391 312.016342,4.78226197 312.265474,4.728 L312.265474,4.0515 L310.928353,4.0515 C310.825992,4.04369533 310.729089,4.08307465 310.69581,4.146 C310.667738,4.19409505 310.651267,4.24468339 310.646976,4.296 L310.456291,4.296 L310.456291,3.006 L310.646976,3.006 C310.651622,3.05728638 310.66808,3.10784073 310.69581,3.156 C310.733859,3.21624745 310.827776,3.25380721 310.928353,3.249 L314.242088,3.249 L314.25139,4.692 Z" id="Path"></path>
                <path d="M349.695567,5.4525 C349.695567,5.5275 349.730448,5.577 349.807187,5.6025 C349.88104,5.62358171 349.959463,5.63724018 350.03973,5.643 L350.03973,5.769 L347.235264,5.769 L347.235264,5.643 C347.315488,5.63710304 347.393881,5.6234501 347.467806,5.6025 C347.548534,5.57161262 347.592561,5.51244861 347.579427,5.4525 L347.579427,4.1025 L344.535441,1.4025 C344.484645,1.35726804 344.407317,1.32744893 344.321502,1.32 C344.240775,1.30720936 344.158115,1.30016728 344.075007,1.299 L344.075007,1.1745 L347.500362,1.1745 L347.500362,1.299 C347.422314,1.29956598 347.344496,1.30458556 347.267819,1.314 C347.229138,1.31515482 347.192804,1.32629763 347.166996,1.34491934 C347.141188,1.36354105 347.12808,1.38807618 347.130619,1.413 C347.15702,1.48374729 347.208791,1.54951051 347.281772,1.605 C347.384091,1.6995 347.514315,1.812 347.658491,1.944 C347.802668,2.076 347.970099,2.2155 348.151482,2.3655 C348.332866,2.5155 348.502622,2.658 348.660751,2.7975 C348.747273,2.69379292 348.843572,2.59360498 348.949104,2.4975 L349.41419,2.061 C349.579295,1.911 349.725797,1.77 349.85137,1.6455 C349.938837,1.5743905 350.003642,1.49282609 350.042055,1.4055 C350.048848,1.35597382 349.993086,1.31201207 349.916482,1.3065 C349.848329,1.29751662 349.779063,1.29249649 349.709519,1.2915 L349.709519,1.167 L352.865125,1.167 L352.865125,1.2915 C352.786586,1.29247126 352.708515,1.29952172 352.632582,1.3125 C352.549113,1.32077406 352.474425,1.35054629 352.425619,1.395 L349.700217,4.0485 L349.695567,5.4525 Z" id="Path"></path>
            </g>
            <g id="A" transform="translate(332.000000, 57.000000)" fill="#0071BC" fill-rule="nonzero">
                <polygon id="Path" points="44.8569359 47.1561243 12.6023398 47.1561243 9.66584958 58.3707495 49.9296936 58.3707495"></polygon>
                <path d="M11.9331476,11.359415 C11.9331476,11.359415 28.2722006,11.2453382 28.2955989,11.1795247 L29.0771031,11.1795247 C32.5540947,20.0087751 36.6347632,29.0691042 40.4837883,37.4888483 L44.8569359,47.1561243 L58.7742618,47.1561243 L58.7742618,58.3707495 L49.9343733,58.3707495 L59.6891365,79.9327239 L83.8619499,79.9327239 L42.4866852,0.108226691 L26.068078,0" id="Path"></path>
                <polygon id="Path" points="58.7742618 47.1561243 44.8569359 47.1561243 49.9296936 58.3707495 58.7742618 58.3707495"></polygon>
                <polygon id="Path" points="-1.13686838e-13 47.0449726 9.54651811 58.2903108 9.66584958 58.3707495 14.8064624 47.1561243"></polygon>
            </g>
            <path d="M256,57 L278.814249,57 L278.814249,93.2740931 L279.469271,93.2740931 L324.605342,57 L349.909602,57 L278.814249,113.35764 L278.814249,137 L256,137 L256,57 Z M294.627669,96.1659949 L308.009149,85.0395749 L354,137 L328.814202,137 L294.627669,96.1659949 Z" id="Shape" fill="#0071BC" fill-rule="nonzero"></path>
            <g id="D" transform="translate(138.000000, 56.000000)" fill="#004972" fill-rule="nonzero">
                <path d="M72.4225751,8.54603759e-06 C70.9129347,0.00168282381 69.5375359,0.549985704 68.8812876,1.41174306 L2.84217094e-14,1.41174306 L2.84217094e-14,3.57855722 L68.8812876,3.57855722 C69.7259604,4.69330228 71.7305405,5.24832654 73.5947608,4.88361451 C75.4589807,4.51890249 76.6213497,3.34430305 76.3278994,2.121718 C76.0344488,0.899132952 74.3735641,-0.00320307577 72.4225751,8.54603759e-06 Z" id="Path"></path>
                <path d="M98.9103863,19.4969289 C97.3999089,19.4980405 96.023394,20.0464294 95.3667811,20.9086634 L76.3624893,20.9086634 C77.1813733,21.6118375 77.9454077,22.3341089 78.6545923,23.0754775 L95.3667811,23.0754775 C96.2113249,24.1900566 98.2154614,24.745108 100.079516,24.3806832 C101.94357,24.0162583 103.106278,22.8420851 102.813627,21.6196101 C102.520977,20.3971351 100.861086,19.4944443 98.9103863,19.4969289 L98.9103863,19.4969289 Z" id="Path"></path>
                <path d="M103.181717,29.2453891 C101.672076,29.2470633 100.296678,29.7953663 99.6404292,30.6571236 L83.8112446,30.6571236 C84.1202574,31.3671532 84.395279,32.0894244 84.636309,32.8239377 L99.6404292,32.8239377 C100.485102,33.9386828 102.489682,34.493707 104.353902,34.1289951 C106.218122,33.7642831 107.380491,32.5896835 107.087041,31.3670985 C106.79359,30.1445135 105.132706,29.2421775 103.181717,29.2453891 L103.181717,29.2453891 Z" id="Path"></path>
                <path d="M104.03691,38.9938492 C102.526433,38.9949608 101.149918,39.5433498 100.493305,40.4055837 L85.836824,40.4055837 C85.836824,40.4672829 85.836824,40.5260439 85.836824,40.587743 C85.836824,41.2590882 85.8066953,41.9098669 85.7626609,42.5723979 L100.48867,42.5723979 C101.333213,43.686977 103.33735,44.2420284 105.201404,43.8776036 C107.065458,43.5131787 108.228166,42.3390054 107.935516,41.1165305 C107.642866,39.8940555 105.982974,38.9913647 104.032275,38.9938492 L104.03691,38.9938492 Z" id="Path"></path>
                <path d="M102.326524,48.7423094 C100.816883,48.7439837 99.4414844,49.2922866 98.7852361,50.1540439 L84.1843777,50.1540439 C83.9155365,50.8885572 83.6134765,51.6108286 83.2781974,52.3208581 L98.7875536,52.3208581 C99.6322265,53.4356032 101.636807,53.9906274 103.501027,53.6259154 C105.365247,53.2612034 106.527616,52.0866039 106.234165,50.8640189 C105.940715,49.6414339 104.27983,48.7390978 102.328841,48.7423094 L102.326524,48.7423094 Z" id="Path"></path>
                <rect id="Rectangle" x="3.55271368e-14" y="20.9086634" width="17.9428326" height="2.16681416"></rect>
                <rect id="Rectangle" x="3.55271368e-14" y="30.6571236" width="17.9428326" height="2.16681416"></rect>
                <rect id="Rectangle" x="3.55271368e-14" y="40.4055837" width="17.9428326" height="2.16681416"></rect>
                <rect id="Rectangle" x="3.55271368e-14" y="50.1540439" width="17.9428326" height="2.16681416"></rect>
                <rect id="Rectangle" x="3.55271368e-14" y="59.9025041" width="17.9428326" height="2.16681416"></rect>
                <path d="M97.2069528,58.4907696 C95.6973123,58.4924438 94.3219136,59.0407468 93.6656652,59.9025041 L77.9709013,59.9025041 C77.363691,60.5371236 76.7309871,61.1614598 76.0565665,61.7681678 C75.9406867,61.8724687 75.8248069,61.9679554 75.7066094,62.0619731 L93.6494421,62.0619731 C94.488489,63.178618 96.4906194,63.7377635 98.3568666,63.3766405 C100.223114,63.0155175 101.391209,61.8429261 101.103301,60.6196347 C100.815394,59.3963432 99.1582247,58.4909086 97.2069528,58.4907696 Z" id="Path"></path>
                <path d="M72.4225751,77.9876899 C70.9129347,77.9893642 69.5375359,78.5376672 68.8812876,79.3994244 L2.84217094e-14,79.3994244 L2.84217094e-14,81.5662386 L68.8812876,81.5662386 C69.7259604,82.6809837 71.7305405,83.2360079 73.5947608,82.8712959 C75.4589807,82.506584 76.6213497,81.3319844 76.3278994,80.1093994 C76.0344488,78.8868144 74.3735641,77.9844784 72.4225751,77.9876899 Z" id="Path"></path>
                <path d="M88.956309,10.096628 C87.4863743,10.097978 86.1398602,10.6178927 85.463691,11.4451944 L70.2301288,11.4451944 L63.9309013,7.53464572 L8.52651283e-14,7.53464572 L8.52651283e-14,9.69558377 L62.5380258,9.69558377 L68.8372532,13.6061324 L85.3617167,13.6061324 C86.1594193,14.7446553 88.1588493,15.3364287 90.0481167,14.993171 C91.9373839,14.6499133 93.1386255,13.4766156 92.8636681,12.243116 C92.5887108,11.0096164 90.9216548,10.0932009 88.956309,10.095159 L88.956309,10.096628 Z" id="Path"></path>
                <path d="M88.956309,68.0923271 C87.4022372,68.0933607 85.9943149,68.673349 85.3617167,69.5731059 L68.8372532,69.5731059 L62.5380258,73.4821855 L2.84217094e-14,73.4821855 L2.84217094e-14,75.6445926 L63.9309013,75.6445926 L70.2301288,71.7355129 L85.463691,71.7355129 C86.352131,72.8260552 88.3590711,73.3457372 90.1980399,72.9614368 C92.037009,72.5771362 93.1628281,71.4027825 92.8538348,70.1911497 C92.5448417,68.9795169 90.8926396,68.0898041 88.956309,68.0923271 Z" id="Path"></path>
            </g>
            <path d="M131,115.339371 L131,104.314378 L101.846159,104.195814 L106.200713,94.5204011 C110.033372,86.090643 114.024464,77.0914846 117.472692,68.2548029 L131,68.2548029 L131,57 L104.206332,57.1112453 L63,137 L87.0793531,137 L96.7833208,115.419878" id="a" fill="#0071BC" fill-rule="nonzero"></path>
        </g>
    </g>
</svg>